<svg xmlns="http://www.w3.org/2000/svg" viewBox="414.6 398.8 552.5 602.5"><path fill="#3D9BD8" d="M843.405 408.815c1.762-.002 3.523-.02 5.285-.04 17.8-.03 17.8-.03 24.31 3.225-1.353 2.935-2.905 5.283-4.976 7.758l-1.77 2.13-1.88 2.237-3.842 4.62-1.864 2.239a393 393 0 0 0-5.793 7.204c-3.177 4-6.478 7.88-9.812 11.75-20.576 23.89-20.576 23.89-20.31 33.676.602 5.83 2.835 9.316 7.314 13.05 3.032 2.416 6.138 4.73 9.246 7.046 2.224 1.7 4.304 3.532 6.375 5.415 3.61 3.284 7.349 6.379 11.148 9.439 2.8 2.27 5.495 4.619 8.139 7.07 7.75 7.163 12.13 10.139 23.01 9.74 4.108-.51 6.134-1.484 9.015-4.374l1.813-1.66c4.205-4 7.919-8.33 11.55-12.85 3.133-3.9 6.368-7.703 9.637-11.49 3.625-4.202 7.2-8.433 10.688-12.75 3.646-4.496 7.45-8.798 11.367-13.058C944 477 944 477 945.633 474.715L947 473h2c9.663 24.476 11.473 52.393 1.13 77.075-10.607 23.377-26.881 41.92-51.171 51.232-12.85 4.548-28.622 8.04-42.123 4.975-3.644-.731-6.177-1.013-9.836-.282-4.395 3.087-7.465 7.695-10.563 12.009-1.79 2.48-3.676 4.877-5.577 7.274a431 431 0 0 0-2.715 3.464c-3.26 4.195-6.662 8.242-10.145 12.253-5.067 5.837-9.887 11.835-14.625 17.942l-1.226 1.567a166 166 0 0 0-3.15 4.269c-2.388 2.655-3.472 3.559-7 4.222-3.368-.513-6.597-1.45-9.874-2.375-17.474-4.52-17.474-4.52-26.125-2.625-1.94 1.653-3.397 3.08-5 5-.73.779-1.46 1.557-2.21 2.36-4.856 5.364-9.442 10.853-13.79 16.64l-1.175 1.56A2925 2925 0 0 0 726 700c-3.221-1.074-3.447-1.251-5.058-3.965l-1.152-1.9-1.227-2.072q-1.323-2.174-2.652-4.344l-1.418-2.316c-2.587-4.164-5.283-8.255-7.993-12.34l-1.564-2.385-1.467-2.205-1.3-1.961C701 665 701 665 699 664c-.266.724-.534 1.448-.81 2.193-1.184 2.796-2.56 5.172-4.2 7.72-.594.928-1.187 1.855-1.8 2.81l-1.876 2.902-1.818 2.832-3.655 5.685A745 745 0 0 0 666 719c-.205.356-.205.356-1.247 2.153-30.355 52.646-30.355 52.646-26.206 75.914 1.309 8.397 1.309 8.397-1.097 12.718a115 115 0 0 1-6.07 6.735c-2.477 2.657-4.658 5.546-6.88 8.418l-1.391 1.77a342 342 0 0 0-6.737 8.85l-1.247 1.695a345 345 0 0 0-2.308 3.192c-.892 1.22-1.85 2.394-2.817 3.555h-2l-.562 2c-1.698 3.544-3.905 5.955-6.527 8.852-2.447 2.752-4.674 5.64-6.918 8.558-7.51 9.763-15.216 19.363-22.996 28.91a1079 1079 0 0 0-13.47 16.837c-6.604 8.44-13.327 16.778-20.097 25.086a931 931 0 0 0-11.867 14.878C494.653 988.74 494.653 988.74 479 991c-14.81 1.147-26.701-1.061-38.367-10.636-9.013-7.832-14.723-19.65-15.957-31.47-.64-18.462 9.328-30.007 20.762-43.097a802 802 0 0 0 7.25-8.484l1.373-1.624c4.373-5.181 8.663-10.428 12.939-15.69 4.734-5.822 9.504-11.603 14.375-17.311a382 382 0 0 0 11.063-13.625c4.254-5.48 8.68-10.776 13.22-16.021 3.774-4.363 7.438-8.797 11.073-13.276 2.5-3.067 5.075-6.07 7.644-9.078 4.924-5.78 9.647-11.703 14.313-17.692l1.219-1.563a120 120 0 0 0 2.78-3.835L544 786h2l.817-1.767c1.19-2.245 2.498-4.008 4.125-5.955.289-.35.289-.35 1.755-2.115l1.866-2.225 3.836-4.613 1.882-2.257a890 890 0 0 0 6.407-7.818c3.689-4.517 7.45-8.97 11.227-13.415A652 652 0 0 0 586.5 735.5a754 754 0 0 1 10-12 1010 1010 0 0 0 13.18-15.882c6.998-8.574 14.023-17.126 21.195-25.555a499 499 0 0 0 10.844-13.215c7.223-9.058 14.65-17.961 22.156-26.785a496 496 0 0 0 10.852-13.227c2.942-3.69 5.956-7.321 8.96-10.961a3201 3201 0 0 0 17.333-21.203c5.618-6.925 11.253-13.836 16.98-20.672 4.097 2.323 7.707 5.01 11.375 7.938l1.834 1.45c3.217 2.55 6.42 5.115 9.62 7.687 7.618 6.122 15.272 12.168 23.17 17.925l1.63 1.207c2.748 1.59 5.405 1.547 8.37.793 5.694-3.54 9.753-8.955 13.798-14.195 2.028-2.618 4.169-5.128 6.33-7.636 14.55-16.9 14.55-16.9 14.873-22.17-1.41-5.7-4.557-8.912-9.062-12.436l-1.77-1.438A489 489 0 0 0 793 551l-2.48-1.992a989 989 0 0 0-4.672-3.723c-3.764-3-7.454-6.09-11.16-9.16-5.845-4.842-11.75-9.574-17.841-14.105-4.551-3.42-4.551-3.42-5.163-6.735-2.054-18.553-1.175-36.992 6.316-54.285l1.204-2.883c9.963-21.931 30.08-35.846 51.898-44.421 4.53-1.66 9.155-2.82 13.898-3.696l3.016-.558c5.102-.697 10.248-.628 15.389-.627"/><path fill="#FFFFFF" d="M443 461h81c5.625 9 5.625 9 8.016 13.25l1.587 2.815L535.25 480l1.747 3.101q3.65 6.483 7.288 12.973a3726 3726 0 0 0 14.34 25.301l1.041 1.822a3672 3672 0 0 0 11.174 19.44l3.722 6.425.93 1.605c4.785 8.268 9.453 16.596 14.07 24.958 7.862 14.235 16.052 28.262 24.325 42.262l2.613 4.425 1.231 2.086a364 364 0 0 1 7.746 13.836 160 160 0 0 0 3.734 6.407l1.148 1.907a196 196 0 0 0 2.278 3.683c2.495 4.168 2.495 4.168 1.922 6.777a192 192 0 0 1-6.997 8.43l-3.265 3.765-1.67 1.92a933 933 0 0 0-7.315 8.565l-1.372 1.622c-4.372 5.182-8.662 10.43-12.94 15.69a5448 5448 0 0 1-4.75 5.812l-1.137 1.391Q591.084 709.126 587 714c-3.832-1.277-4.158-2.511-6.117-5.977l-.889-1.554a747 747 0 0 1-2.869-5.094l-2.023-3.562a2462 2462 0 0 1-5.133-9.092c-1.445-2.566-2.9-5.126-4.356-7.686a3377 3377 0 0 1-13.043-23.183l-4.383-7.859c-4.936-8.838-9.994-17.601-15.13-26.325a976 976 0 0 1-9.773-17.039l-1.253-2.231L519 599l.015 3.056c.116 23.984.175 47.968.165 71.952q-.003 4.437-.003 8.873v1.784c-.001 9.51.037 19.019.09 28.529q.078 14.658.037 29.314c-.013 5.484-.008 10.966.044 16.449.049 5.169.045 10.336.003 15.505q-.011 2.834.038 5.668c.173 10.737-.544 17.875-8.209 25.832q-1.417 1.391-2.863 2.753c-1.907 1.861-3.509 3.925-5.129 6.035-4.848 6.115-9.831 12.118-14.797 18.137a1960 1960 0 0 0-8.079 9.863 797 797 0 0 1-9.812 11.75c-5.938 6.997-11.834 14.024-17.434 21.297l-1.511 1.955a516 516 0 0 0-2.926 3.83l-1.344 1.742-1.191 1.565L445 886h-2z"/><path fill="#FFFFFF" d="M955 570h2q.034 66.857.051 133.713l.004 15.768.001 3.171q.007 25.451.021 50.903.014 26.094.017 52.189.002 16.116.014 32.231.007 11.036.006 22.071-.002 6.377.005 12.753.007 5.829.002 11.656-.001 2.118.004 4.236.005 2.86-.002 5.72l.001 3.221C957 920 957 920 956 921h-74V619l15-4c23.844-7.518 44.483-21.47 56.992-43.602z"/><path fill="#8DC63F" d="M699 689h3c1.495 1.822 1.495 1.822 3.082 4.406l1.803 2.906q.965 1.593 1.927 3.188l2.014 3.286c1.737 2.842 3.458 5.693 5.173 8.549q1.427 2.372 2.863 4.738C743.01 756.037 743.01 756.037 749 777l.727 2.48c2.992 11.592 1.055 22.936-4.235 33.543-7.721 12.821-18.497 21.52-32.992 25.415-13.958 2.33-28.492.325-40.5-7.438-10.691-8.497-18.484-18.316-21-32-3.318-31.313 18.755-63.158 34.46-88.508 1.634-2.644 3.245-5.302 4.856-7.961l3.246-5.281 1.518-2.513 1.424-2.284 1.244-2.026z"/><path fill="#FFFFFF" d="M863.523 619.305 866 620l1 2c-.874 2.065-.874 2.065-2.289 4.637l-1.585 2.903-1.75 3.148q-.897 1.627-1.79 3.257c-4.52 8.22-9.139 16.387-13.776 24.542a1124 1124 0 0 0-10.873 19.638 1076 1076 0 0 1-13.22 23.619c-4.202 7.319-8.314 14.687-12.405 22.069l-1.95 3.517-2.817 5.082c-6.639 11.976-13.394 23.885-20.21 35.76a1667 1667 0 0 0-6.278 11.04 2527 2527 0 0 1-4.06 7.157 746 746 0 0 0-1.97 3.494 715 715 0 0 1-2.777 4.895l-1.61 2.848c-1.656 2.418-3.202 3.803-5.64 5.394l.5-3.125c3.255-27.693-9.435-53.458-23.727-76.523l-1.01-1.645c-.876-1.4-1.778-2.783-2.68-4.164-1.424-3.343-1.11-5.083-.083-8.543 1.461-2.5 1.461-2.5 3.375-5l1.054-1.394A416 416 0 0 1 743 700l1.341-1.723q3.497-4.493 7.037-8.952a282 282 0 0 0 4.774-6.18l1.848-2.457 1.562-2.113C761 677 761 677 764 676c1.834.222 1.834.222 3.878.707l2.278.527c.794.19 1.588.382 2.406.579l4.914 1.125a541 541 0 0 1 7.547 1.812c5.884 1.37 12.105 2.024 17.977.25 1.062-1.726 1.062-1.726 2-4a153 153 0 0 1 4-5.25l2.125-2.703L813 667h2l.757-1.695c1.447-2.684 3.17-4.833 5.118-7.18l1.18-1.425c3.775-4.544 7.633-9.018 11.49-13.493a448 448 0 0 0 8.141-9.698 490 490 0 0 1 3.314-4.016c2-2.493 2-2.493 3.687-4.985 4.324-6.008 7.626-6.187 14.836-5.203"/><path fill="#3D9BD8" d="M734.89 515.863c6.525 2.385 11.25 7.68 16.209 12.388 2.87 2.641 5.929 5.007 9.026 7.374 5.109 3.948 10.064 8.034 14.964 12.237 4.606 3.93 9.347 7.67 14.156 11.347 3.522 2.72 6.672 5.58 9.755 8.791-1.527 5.052-4.605 8.288-8.062 12.125a2653 2653 0 0 0-3.531 3.996c-.58.654-1.158 1.31-1.754 1.984-3.018 3.46-5.882 7.041-8.75 10.625-1.862 2.221-3.823 4.254-5.903 6.27-4.094-1.417-7.294-3.493-10.687-6.125-.526-.4-1.051-.802-1.592-1.216-4.058-3.11-8.057-6.294-12.037-9.503a1144 1144 0 0 0-9.496-7.53c-.593-.468-1.187-.934-1.798-1.414a1007 1007 0 0 0-10.446-8.088 910 910 0 0 1-4.82-3.726 186 186 0 0 0-6.311-4.672c-4.545-3.31-8.296-6.217-9.938-11.789-.363-3.228-.108-4.554 1.594-7.347a54 54 0 0 1 5.53-5.59l2.369.484c4.253.833 4.253.833 6.632.516 1.75-1.5 1.75-1.5 3-3-1.1-2.908-2.222-5.453-4-8 4.24-6.124 7.975-10.804 15.89-10.137"/><path fill="#FFFFFF" d="M888.805 460.121q2.173.025 4.346.04c3.799.033 7.595.121 11.393.221 3.88.092 7.762.133 11.644.178 7.605.097 15.208.25 22.812.44l-2 4h-2l-.836 1.801c-1.102 2.082-2.23 3.621-3.781 5.38l-1.571 1.793-1.687 1.901-3.54 4.04-1.812 2.062c-19.074 21.764-19.074 21.764-24.394 29.328-.455.56-.91 1.12-1.38 1.695h-2l-.811 1.75c-2.305 4.368-2.305 4.368-4.188 6.25-4.565 1.378-4.565 1.378-7 1-4.964-2.875-9.15-6.589-13.437-10.375l-3.81-3.336-1.865-1.64A994 994 0 0 0 854 499c1.928-6.148 4.755-11.61 7.75-17.313l1.555-3.013 1.555-2.975 1.389-2.66.82-1.386c.93-1.653.93-1.653 1.943-3.98 4.45-8.742 11.115-7.848 19.793-7.552"/><path fill="#FFFFFF" d="m651 829 1.215 1.066A494 494 0 0 0 658 835l2.047 1.746C674.801 848.835 691.286 852.705 710 851c13.204-1.938 26.689-8.486 36-18l1 2c-1.041 2.325-1.041 2.325-2.691 5.258l-.898 1.609a876 876 0 0 1-2.973 5.258l-2.073 3.685c-5.494 9.754-11.117 19.431-16.791 29.081-2.59 4.41-5.144 8.839-7.679 13.281l-2.065 3.609q-1.502 2.624-2.995 5.256a1276 1276 0 0 1-2.753 4.826l-1.587 2.791c-1.34 2.103-2.651 3.683-4.495 5.346-2.871-3.433-5.252-6.926-7.434-10.84l-.952-1.682q-1.009-1.78-2.012-3.566c-1.771-3.15-3.556-6.293-5.34-9.435l-1.088-1.918c-3.856-6.783-7.829-13.494-11.836-20.19-3.102-5.203-6.058-10.468-8.941-15.796a501 501 0 0 0-5.647-10.073l-1.023-1.797c-2.568-4.488-2.568-4.488-3.835-6.201C651 832 651 832 651 829"/><path fill="#22376A" d="M484.563 922.5c5.13 3.152 8.26 8.041 10.812 13.375 1.767 8.831.738 15.344-4.125 22.813-5.277 5.424-11.087 7.435-18.562 7.562-7.022-.084-12.126-2.02-17.332-6.766-4.92-5.387-5.981-11.113-5.897-18.259.346-6.556 2.466-11.433 7.327-15.846 7.361-5.518 19.212-6.661 27.777-2.879"/><path fill="#22376A" d="M661 781c5.75-.125 5.75-.125 8 1 .237 2.212.368 4.344.438 6.562.299 5.644.94 10.35 3.562 15.438l.957 2.047c3.267 6.142 7.973 8.845 14.043 11.953l1.98 1.035c1.329.678 2.672 1.327 4.02 1.965l-1 7c-7.091-.973-12.249-2.731-18-7l-1.617-1.121C665.587 814.042 661.461 805.471 660 796c-.862-11.276-.862-11.276 1-15"/></svg>